<?xml version="1.0" encoding="utf-8"?>
<!-- Generator: Adobe Illustrator 27.0.1, SVG Export Plug-In . SVG Version: 6.00 Build 0)  -->
<svg version="1.1" id="Layer_1" xmlns="http://www.w3.org/2000/svg" xmlns:xlink="http://www.w3.org/1999/xlink" x="0px" y="0px"
	 viewBox="0 0 100 100" style="enable-background:new 0 0 100 100;" xml:space="preserve">
<style type="text/css">
	.st0{clip-path:url(#SVGID_00000134218838823293454420000014155317352238875789_);}
	.st1{fill:#242424;}
	.st2{fill:#D5A153;}
</style>
<g>
	<defs>
		<path id="SVGID_1_" d="M20,0h60c11,0,20,9,20,20v60c0,11-9,20-20,20H20C9,100,0,91,0,80V20C0,9,9,0,20,0z"/>
	</defs>
	<clipPath id="SVGID_00000148662250146313720430000014495377971992679310_">
		<use xlink:href="#SVGID_1_"  style="overflow:visible;"/>
	</clipPath>
	<g style="clip-path:url(#SVGID_00000148662250146313720430000014495377971992679310_);">
		<path class="st1" d="M20,0h60c11,0,20,9,20,20v60c0,11-9,20-20,20H20C9,100,0,91,0,80V20C0,9,9,0,20,0z"/>
		<path class="st2" d="M43.8,79.8c0-3.2-1.1-6.3-3.1-8.7l3.3-8.1l-2.5-1.3c-0.4-0.2-0.9-0.5-1.2-0.8L37.5,58l-4.9,8
			c-2.8-0.6-5.8-0.3-8.5,0.8s-4.9,3.1-6.4,5.6c-1.5,2.5-2.2,5.4-2,8.3c0.2,2.9,1.3,5.7,3.1,7.9c1.8,2.3,4.3,3.9,7.1,4.7
			c2.8,0.8,5.8,0.7,8.5-0.3c2.7-1,5.1-2.8,6.8-5.1C42.8,85.5,43.7,82.7,43.8,79.8L43.8,79.8z M21.9,79.8c0-1.5,0.5-3.1,1.3-4.3
			c0.9-1.3,2.1-2.3,3.5-2.9c1.4-0.6,3-0.7,4.5-0.4c1.5,0.3,2.9,1,4,2.1c1.1,1.1,1.8,2.5,2.1,4c0.3,1.5,0.1,3.1-0.4,4.5
			c-0.6,1.4-1.6,2.6-2.9,3.5c-1.3,0.9-2.8,1.3-4.3,1.3c-2.1,0-4.1-0.8-5.5-2.3C22.7,83.8,21.9,81.9,21.9,79.8L21.9,79.8z"/>
		<path class="st2" d="M33,6.2l-2.5,1.1c-2,0.9-3.1,2.9-3.5,6.4c-0.2,2-0.2,5.3,0.7,9.7c0.9,3.9,5.5,23.9,11.4,32.2
			c2.8,4,6.6,4.7,9.6,5.3c2.8,0.5,4.9,1,6.8,3.5c2.2,2.9,3.2,5.3,3.6,6.6c-2.1,2.6-3.1,5.9-3,9.2c0.1,3.3,1.4,6.5,3.6,9
			c2.2,2.5,5.3,4,8.6,4.5c3.3,0.4,6.6-0.3,9.4-2.2c2.8-1.8,4.8-4.6,5.8-7.8c0.9-3.2,0.7-6.6-0.6-9.7c-1.3-3-3.7-5.5-6.7-6.9
			s-6.4-1.8-9.6-0.9L33,6.2z M50,50.1c0,0.6-0.2,1.2-0.5,1.7s-0.8,0.9-1.4,1.2c-0.6,0.2-1.2,0.3-1.8,0.2c-0.6-0.1-1.2-0.4-1.6-0.9
			c-0.4-0.4-0.7-1-0.9-1.6c-0.1-0.6-0.1-1.2,0.2-1.8c0.2-0.6,0.6-1.1,1.2-1.4c0.5-0.3,1.1-0.5,1.7-0.5c0.8,0,1.6,0.3,2.2,0.9
			C49.7,48.5,50,49.3,50,50.1L50,50.1z M78.1,79.8c0,1.5-0.5,3.1-1.3,4.3c-0.9,1.3-2.1,2.3-3.5,2.9c-1.4,0.6-3,0.7-4.5,0.4
			c-1.5-0.3-2.9-1-4-2.1c-1.1-1.1-1.8-2.5-2.1-4c-0.3-1.5-0.1-3.1,0.4-4.5c0.6-1.4,1.6-2.6,2.9-3.5c1.3-0.9,2.8-1.3,4.3-1.3
			c2.1,0,4.1,0.8,5.5,2.3C77.3,75.7,78.1,77.7,78.1,79.8z"/>
		<path class="st2" d="M50.8,32.9l9.4,16.4l2.6-5.4l0.3-0.7c1.8-3.7,6.5-13.4,7.1-23.3c0-0.8,0.1-1.5,0.1-2.1c0-4-1-6.2-1.8-7.5
			l-2.7-4L50.8,32.9z"/>
	</g>
</g>
</svg>
